# xmcd
#
# Track frame offsets:
#	183
#	16560
#	32048
#	46613
#	58373
#	73315
#	86435
#	103138
#	117518
#	130863
#	147085
#	160655
#
# Disc length: 2349 seconds
#
# Revision: 0
# Processed by: cddbd v1.5.2PL0 Copyright (c) Steve Scherf et al.
# Submitted via: audiograbber 1.83.01
#
DISCID=9e092b0c
DTITLE=Roland B. - Die Großen Erfolgstitel Der Flippers Folge 2
DYEAR=1900
DGENRE=Schlager/ Coverversion
TTITLE0=Wenn Weisse Wolken
TTITLE1=Surf, Baby, Surf
TTITLE2=Komm Auf Meine Insel
TTITLE3=Du Tust Mir Weh
TTITLE4=Arrivederci Napoli
TTITLE5=Bye, Bye, Bis Morgen
TTITLE6=Was Hast Du Am Sonntag
TTITLE7=Maja
TTITLE8=Gipsy, Ich Bin So Allein
TTITLE9=Zwei Schatten Am Fenster
TTITLE10=Das Schönste Im Leben
TTITLE11=Mama Mia
EXTD=
EXTT0=
EXTT1=
EXTT2=
EXTT3=
EXTT4=
EXTT5=
EXTT6=
EXTT7=
EXTT8=
EXTT9=
EXTT10=
EXTT11=
PLAYORDER=
